<svg xmlns="http://www.w3.org/2000/svg" fill="none" viewBox="0 0 120 120" height="120" width="120">
<path fill="#FED3FF" d="M39.9625 32.2603C41.3189 27.2941 44.0693 18.7388 50.6725 17V27.1323C54.1934 24.7483 61.4163 20.2781 62.1405 21.4702C62.5662 22.1708 61.1363 24.4155 59.3947 26.6919C59.5172 26.6907 59.6398 26.6901 59.7625 26.6901C80.7703 26.6901 97.8005 43.7727 97.8005 64.8451C97.8005 85.9174 80.7703 103 59.7625 103C38.7547 103 21.7245 85.9174 21.7245 64.8451C21.7245 51.0482 29.025 38.9617 39.9625 32.2603Z" clip-rule="evenodd" fill-rule="evenodd"></path>
<path fill="#FFE9FE" d="M91.095 86.4845C84.2337 96.4609 72.7593 103 59.7625 103C55.1255 103 50.6823 102.167 46.5732 100.644C45.9752 91.8323 55.2373 83.2304 67.9968 81.0646C77.3712 79.4724 86.1419 81.7778 91.095 86.4845Z" clip-rule="evenodd" fill-rule="evenodd"></path>
<path fill="#303075" d="M51.283 16.208C51.5286 16.3973 51.6725 16.6899 51.6725 17V25.2711C53.2825 24.2273 55.2233 23.0327 56.9787 22.0811C58.1595 21.441 59.298 20.8878 60.2111 20.5717C60.6591 20.4167 61.121 20.294 61.5375 20.2745C61.9007 20.2575 62.6048 20.3085 62.9952 20.9509C63.3382 21.5155 63.208 22.1611 63.0953 22.5439C62.9633 22.9924 62.7292 23.4846 62.4531 23.9782C62.1515 24.5176 61.7706 25.1095 61.3449 25.7217C82.174 26.5545 98.8005 43.7547 98.8005 64.8451C98.8005 86.4668 81.3255 104 59.7625 104C38.1995 104 20.7245 86.4668 20.7245 64.8451C20.7245 50.8294 28.0674 38.5335 39.1024 31.6169C39.7861 29.1552 40.8192 25.8652 42.4794 22.9279C44.2215 19.8454 46.7399 17.0015 50.4179 16.033C50.7178 15.954 51.0374 16.0186 51.283 16.208ZM44.2205 23.9119C42.6025 26.7746 41.6018 30.0536 40.9271 32.5238C40.8601 32.7693 40.7019 32.9801 40.4849 33.113C29.8325 39.6397 22.7245 51.4095 22.7245 64.8451C22.7245 85.3681 39.3099 102 59.7625 102C80.2151 102 96.8005 85.3681 96.8005 64.8451C96.8005 44.3221 80.2151 27.6901 59.7625 27.6901C59.6429 27.6901 59.5235 27.6907 59.4042 27.6918C59.022 27.6955 58.6712 27.4809 58.5003 27.1391C58.3294 26.7972 58.3683 26.3878 58.6005 26.0843C59.4617 24.9587 60.2205 23.8729 60.7076 23.002C60.831 22.7813 60.9309 22.585 61.0087 22.4138C60.9632 22.4284 60.9154 22.4444 60.8653 22.4617C60.1105 22.723 59.0874 23.2129 57.9318 23.8393C55.635 25.0844 52.9789 26.7784 51.2332 27.9604C50.9268 28.1679 50.5308 28.1892 50.2038 28.0157C49.8769 27.8423 49.6725 27.5024 49.6725 27.1324V18.4091C47.3719 19.4347 45.6021 21.4674 44.2205 23.9119ZM61.686 22.2728C61.6856 22.2731 61.6795 22.273 61.6689 22.2716C61.6811 22.2718 61.6864 22.2725 61.686 22.2728ZM61.2164 21.7945C61.2162 21.7896 61.2163 21.7869 61.2165 21.7868C61.2166 21.7867 61.2167 21.7892 61.2164 21.7945Z" clip-rule="evenodd" fill-rule="evenodd"></path>
<path fill="white" d="M51.7866 61.8169C51.7866 67.8376 46.8424 72.7183 40.7434 72.7183C34.6443 72.7183 29.7001 67.8376 29.7001 61.8169C29.7001 55.7963 34.6443 50.9155 40.7434 50.9155C46.8424 50.9155 51.7866 55.7963 51.7866 61.8169Z"></path>
<path fill="black" d="M49.3326 61.8169C49.3326 66.4997 45.4871 70.2958 40.7434 70.2958C35.9997 70.2958 32.1542 66.4997 32.1542 61.8169C32.1542 57.1342 35.9997 53.338 40.7434 53.338C45.4871 53.338 49.3326 57.1342 49.3326 61.8169Z"></path>
<path fill="white" d="M38.9028 60C38.9028 62.0069 37.2548 63.6338 35.2217 63.6338C33.1887 63.6338 31.5406 62.0069 31.5406 60C31.5406 57.9931 33.1887 56.3662 35.2217 56.3662C37.2548 56.3662 38.9028 57.9931 38.9028 60Z"></path>
<path fill="white" d="M83.6895 51.5211C83.6895 57.5418 78.7452 62.4225 72.6462 62.4225C66.5472 62.4225 61.6029 57.5418 61.6029 51.5211C61.6029 45.5004 66.5472 40.6197 72.6462 40.6197C78.7452 40.6197 83.6895 45.5004 83.6895 51.5211Z"></path>
<path fill="black" d="M81.2355 51.5212C81.2355 56.2039 77.3899 60 72.6462 60C67.9025 60 64.057 56.2039 64.057 51.5212C64.057 46.8384 67.9025 43.0423 72.6462 43.0423C77.3899 43.0423 81.2355 46.8384 81.2355 51.5212Z"></path>
<path fill="white" d="M70.8057 49.7042C70.8057 51.7111 69.1576 53.338 67.1246 53.338C65.0916 53.338 63.4435 51.7111 63.4435 49.7042C63.4435 47.6973 65.0916 46.0704 67.1246 46.0704C69.1576 46.0704 70.8057 47.6973 70.8057 49.7042Z"></path>
<path fill="#FEE46B" d="M68.3519 70.2948C68.3516 75.1388 67.4314 78.0657 64.3638 79.0775C61.2962 80.0893 56.3886 75.7459 54.5478 72.718C52.7069 69.6902 54.2409 65.84 60.0694 64.2395C65.8978 62.6391 68.3522 65.4508 68.3519 70.2948Z"></path>
<path fill="#2F3277" d="M65.7597 65.6216C64.7758 64.809 63.0977 64.445 60.3342 65.2039C57.5791 65.9604 56.0089 67.2024 55.3006 68.4402C54.6118 69.6437 54.6577 70.9738 55.4023 72.1986C56.2474 73.5887 57.8398 75.3361 59.5838 76.6038C60.4521 77.235 61.3205 77.7196 62.1161 77.9895C62.9181 78.2616 63.563 78.2887 64.0506 78.1278C65.2901 77.719 66.0761 76.9527 66.5859 75.7366C67.1209 74.4603 67.3518 72.6798 67.352 70.2947C67.3521 68.0006 66.7666 66.453 65.7597 65.6216ZM67.0332 64.0794C68.7106 65.4647 69.3521 67.745 69.352 70.2948C69.3518 72.7538 69.1225 74.8587 68.4304 76.5098C67.713 78.2211 66.5052 79.4242 64.6771 80.0272C63.6309 80.3723 62.512 80.2358 61.4735 79.8835C60.4287 79.529 59.38 78.9282 58.4078 78.2215C56.4709 76.8135 54.6891 74.8753 53.6934 73.2375C52.5971 71.4344 52.4896 69.3254 53.5647 67.4468C54.6202 65.6024 56.7312 64.1192 59.8046 63.2752C62.8696 62.4337 65.3329 62.6753 67.0332 64.0794Z" clip-rule="evenodd" fill-rule="evenodd"></path>
<path fill="#303075" d="M38.2893 45.4622C39.2096 46.9768 36.7547 48.4909 34.9141 49.0945C33.0736 49.6981 30.3136 50.0085 30.0068 49.4001C29.7 48.7917 32.46 46.0663 33.6871 45.4612C34.9141 44.8562 37.369 43.9476 38.2893 45.4622Z"></path>
<path fill="#303075" d="M65.6661 36.951C65.1116 35.2718 67.8469 34.3369 69.7776 34.1541C71.7082 33.9713 74.4687 34.277 74.6301 34.9377C74.7916 35.5983 71.4849 37.6467 70.152 37.9661C68.8191 38.2855 66.2207 38.6302 65.6661 36.951Z"></path>
<path fill="#FEA3FF" d="M40.5392 76.8333C40.5393 76.8333 40.5396 76.8348 40.54 76.838C40.5393 76.8349 40.5391 76.8333 40.5392 76.8333ZM40.5405 76.8641C40.4907 76.8146 40.3349 76.6984 39.9298 76.6216C39.3235 76.5067 38.4347 76.5618 37.4614 76.9332C36.4882 77.3047 35.793 77.8541 35.4227 78.3417C35.1752 78.6676 35.1391 78.857 35.136 78.9267C35.1858 78.9762 35.3416 79.0925 35.7468 79.1692C36.3531 79.2841 37.2418 79.229 38.2151 78.8576C39.1884 78.4861 39.8835 77.9367 40.2539 77.4491C40.5013 77.1233 40.5374 76.9338 40.5405 76.8641ZM35.116 78.903C35.1161 78.903 35.117 78.9043 35.1186 78.9071C35.1167 78.9045 35.1159 78.9031 35.116 78.903ZM35.1374 78.9576C35.1373 78.9576 35.1369 78.956 35.1365 78.9528C35.1373 78.9559 35.1375 78.9575 35.1374 78.9576ZM40.5579 76.8837C40.5598 76.8863 40.5606 76.8877 40.5605 76.8878C40.5604 76.8878 40.5595 76.8865 40.5579 76.8837ZM38.9445 80.7198C41.4728 79.7549 43.0271 77.7081 42.4162 76.1482C41.8052 74.5884 39.2604 74.106 36.7321 75.071C34.2038 76.0359 32.6494 78.0827 33.2604 79.6426C33.8713 81.2025 36.4161 81.6848 38.9445 80.7198Z" clip-rule="evenodd" fill-rule="evenodd"></path>
<path fill="#FEA3FF" d="M87.7799 61.6925C87.78 61.6924 87.7804 61.694 87.7807 61.6972C87.78 61.6941 87.7798 61.6925 87.7799 61.6925ZM87.7812 61.7233C87.7315 61.6738 87.5756 61.5576 87.1705 61.4808C86.5642 61.3659 85.6754 61.421 84.7022 61.7924C83.7289 62.1639 83.0337 62.7133 82.6634 63.2009C82.416 63.5268 82.3798 63.7162 82.3767 63.7859C82.4265 63.8354 82.5824 63.9516 82.9875 64.0284C83.5938 64.1433 84.4826 64.0882 85.4558 63.7168C86.4291 63.3453 87.1243 62.7959 87.4946 62.3083C87.742 61.9824 87.7782 61.793 87.7812 61.7233ZM82.3567 63.7622C82.3568 63.7622 82.3578 63.7635 82.3594 63.7663C82.3575 63.7637 82.3566 63.7623 82.3567 63.7622ZM82.3781 63.8167C82.378 63.8168 82.3776 63.8152 82.3773 63.812C82.378 63.8151 82.3782 63.8167 82.3781 63.8167ZM87.7986 61.7429C87.8005 61.7455 87.8013 61.7469 87.8012 61.747C87.8012 61.747 87.8002 61.7457 87.7986 61.7429ZM86.1852 65.579C88.7135 64.6141 90.2678 62.5673 89.6569 61.0074C89.046 59.4475 86.5011 58.9652 83.9728 59.9302C81.4445 60.8951 79.8902 62.9419 80.5011 64.5018C81.112 66.0617 83.6569 66.544 86.1852 65.579Z" clip-rule="evenodd" fill-rule="evenodd"></path>
<path fill="#8584FB" d="M100.868 86.5423C99.4437 86.5423 98.3003 87.6802 98.3003 89.0704C98.3003 90.4606 99.4437 91.5986 100.868 91.5986C102.292 91.5986 103.435 90.4606 103.435 89.0704C103.435 87.6802 102.292 86.5423 100.868 86.5423ZM97.3003 89.0704C97.3003 87.1158 98.9037 85.5423 100.868 85.5423C102.832 85.5423 104.435 87.1158 104.435 89.0704C104.435 91.0251 102.832 92.5986 100.868 92.5986C98.9037 92.5986 97.3003 91.0251 97.3003 89.0704Z" clip-rule="evenodd" fill-rule="evenodd"></path>
<path fill="#828CFB" d="M12.9527 37.8467C12.6239 37.9277 12.4247 38.2594 12.5076 38.5877L13.694 43.2819L8.92508 44.4564C8.60005 44.5364 8.40305 44.8644 8.48507 45.1889C8.56709 45.5135 8.89706 45.7117 9.22209 45.6316L13.991 44.4572L15.1774 49.1514C15.2603 49.4796 15.5941 49.6801 15.9228 49.5992C16.2516 49.5182 16.4509 49.1865 16.3679 48.8582L15.1816 44.164L19.9505 42.9895C20.2755 42.9095 20.4725 42.5815 20.3905 42.2569C20.3085 41.9324 19.9785 41.7342 19.6535 41.8143L14.8845 42.9887L13.6982 38.2945C13.6152 37.9662 13.2815 37.7657 12.9527 37.8467Z" clip-rule="evenodd" fill-rule="evenodd"></path>
<path fill="#828CFB" d="M99.2995 29.0266C99.0473 29.0887 98.8944 29.3432 98.9581 29.5951L99.8682 33.1962L96.2098 34.0972C95.9604 34.1586 95.8093 34.4103 95.8722 34.6592C95.9351 34.9082 96.1883 35.0603 96.4376 34.9989L100.096 34.0979L101.006 37.6996C101.07 37.9514 101.326 38.1053 101.578 38.0431C101.83 37.981 101.983 37.7265 101.92 37.4747L101.009 33.873L104.668 32.9718C104.918 32.9104 105.069 32.6588 105.006 32.4098C104.943 32.1608 104.69 32.0088 104.441 32.0702L100.782 32.9713L99.8715 29.3701C99.8078 29.1183 99.5518 28.9645 99.2995 29.0266Z" clip-rule="evenodd" fill-rule="evenodd"></path>
<path fill="#FED3FF" d="M34.3004 85.4366C34.6082 77.8667 24.4861 73.6267 21.7242 75.4432C18.9623 77.2597 17.9565 83.1352 21.4167 90.581C23.9498 96.0317 30.1985 100.22 33.6869 99.0635C35.5288 98.4531 36.4477 95.1269 34.3004 92.7043C37.0626 91.4883 37.0612 88.7676 34.3004 85.4366Z"></path>
<path fill="#303075" d="M24.706 76.1553C23.4454 75.909 22.6273 76.0462 22.2737 76.2787C21.2582 76.9466 20.389 78.5036 20.2352 80.9635C20.0835 83.391 20.6484 86.5548 22.3236 90.1596C23.5059 92.7037 25.5741 94.9801 27.7582 96.4745C28.8473 97.2196 29.9367 97.7505 30.926 98.03C31.9235 98.3117 32.7517 98.3199 33.3723 98.1143C33.824 97.9646 34.3472 97.3847 34.5019 96.4072C34.6488 95.4788 34.4189 94.3456 33.5521 93.3677L32.6426 92.3416L33.8975 91.7891C34.4638 91.5398 34.8244 91.2419 35.0432 90.9388C35.2564 90.6435 35.3716 90.2935 35.3715 89.8637C35.3714 88.9587 34.8527 87.67 33.5305 86.0748L33.2857 85.7794L33.3012 85.396C33.4349 82.1095 31.3066 79.4442 28.6322 77.7672C27.3075 76.9366 25.907 76.3899 24.706 76.1553ZM35.3074 85.0911C35.3053 80.9989 32.6041 77.8972 29.6947 76.0728C28.1821 75.1243 26.5535 74.4784 25.0895 74.1924C23.685 73.918 22.2021 73.9321 21.1747 74.6077C19.4283 75.7563 18.4137 78.0454 18.2391 80.8388C18.0625 83.6646 18.7248 87.1613 20.5099 91.0024C21.8606 93.909 24.1834 96.4519 26.6289 98.1251C27.8546 98.9637 29.1399 99.6037 30.3824 99.9547C31.6169 100.303 32.8779 100.385 34.0015 100.013C35.3917 99.552 36.2489 98.1636 36.4773 96.7198C36.6624 95.5503 36.4666 94.2285 35.7577 93.0163C36.1104 92.7557 36.4159 92.4542 36.6647 92.1095C37.1418 91.4487 37.3716 90.6822 37.3715 89.8635C37.3713 88.3609 36.6032 86.729 35.3074 85.0911Z" clip-rule="evenodd" fill-rule="evenodd"></path>
<path fill="#FED3FF" d="M92.659 67.0349C88.1093 60.9336 94.0896 51.8251 97.4084 51.8031C100.727 51.781 104.894 56.0926 106.251 64.1742C107.245 70.0903 104.444 77.0143 100.898 77.9851C99.0259 78.4977 96.3776 76.2501 96.7822 73.056C93.8039 73.5756 92.2615 71.3208 92.659 67.0349Z"></path>
<path fill="#303075" d="M95.3415 54.0366C96.2452 53.1366 96.998 52.8003 97.4196 52.7975C98.6393 52.7894 100.245 53.5991 101.77 55.5548C103.274 57.484 104.602 60.4194 105.259 64.3329C105.723 67.0957 105.301 70.1253 104.34 72.5701C103.86 73.7893 103.259 74.8305 102.599 75.608C101.933 76.3918 101.254 76.8547 100.626 77.0267C100.17 77.1514 99.4065 76.9621 98.7205 76.2343C98.0693 75.5434 97.6165 74.4743 97.7799 73.1839L97.9499 71.8417L96.6032 72.0767C95.994 72.183 95.5266 72.1358 95.1729 72.0054C94.8276 71.8782 94.5318 71.6509 94.2865 71.2926C93.7709 70.5393 93.47 69.1822 93.6603 67.1301L93.6953 66.7528L93.4673 66.4471C91.4883 63.7931 91.742 60.4054 93.0051 57.5401C93.631 56.1201 94.4807 54.8939 95.3415 54.0366ZM91.6274 67.3106C89.3085 63.9234 89.7842 59.8616 91.161 56.7385C91.8762 55.1159 92.8596 53.6795 93.9113 52.6321C94.9201 51.6274 96.1594 50.8169 97.3971 50.8087C99.4962 50.7947 101.633 52.1297 103.36 54.3447C105.108 56.5862 106.543 59.8474 107.243 64.0155C107.773 67.1687 107.292 70.5592 106.214 73.2982C105.675 74.6708 104.973 75.9124 104.141 76.8911C103.316 77.8634 102.315 78.6301 101.171 78.9436C99.7538 79.3315 98.2573 78.6532 97.2522 77.5869C96.436 76.7209 95.8483 75.5171 95.7498 74.1187C95.3074 74.0983 94.8813 74.0173 94.4782 73.8688C93.7091 73.5854 93.0857 73.0787 92.6228 72.4025C91.7723 71.1602 91.4827 69.3852 91.6274 67.3106Z" clip-rule="evenodd" fill-rule="evenodd"></path>
</svg>
